<svg width="69" height="78" viewBox="0 0 69 78" fill="none" xmlns="http://www.w3.org/2000/svg">
<path d="M1.28944 77.6853H67.2405C67.5825 77.6853 67.9105 77.5494 68.1523 77.3076C68.3941 77.0658 68.5299 76.7378 68.5299 76.3959V1.60417C68.5299 1.26218 68.3941 0.934212 68.1523 0.692395C67.9105 0.450579 67.5825 0.314728 67.2405 0.314728H23.2753C22.9333 0.314728 22.6053 0.450579 22.3635 0.692395C22.1217 0.934212 21.9858 1.26218 21.9858 1.60417V16.6325H1.28944C0.947458 16.6325 0.619485 16.7684 0.377669 17.0102C0.135852 17.252 2.00341e-07 17.58 2.00341e-07 17.9219V76.3951C-9.4221e-05 76.5645 0.033188 76.7323 0.097946 76.8888C0.162704 77.0453 0.257669 77.1876 0.377414 77.3074C0.497158 77.4272 0.639337 77.5222 0.795825 77.5871C0.952314 77.6519 1.12005 77.6853 1.28944 77.6853ZM30.1437 75.1064H16.8583V66.5051H30.1437V75.1064ZM65.9511 19.2121V32.4968H46.5448V19.2114L65.9511 19.2121ZM46.5448 35.0764H65.9511V45.8691H46.5448V35.0764ZM46.5448 48.4451H65.9511V59.2407H46.5448V48.4451ZM46.5448 75.1028V61.8196H65.9511V75.1064L46.5448 75.1028ZM24.5618 2.89432H65.9482V16.6325H24.5618V2.89432ZM2.576 19.2099H43.9681V75.1043H32.7225V65.2143C32.7221 64.8725 32.5861 64.5449 32.3444 64.3034C32.1026 64.0619 31.7748 63.9263 31.4331 63.9263H15.5681C15.3988 63.9262 15.2311 63.9594 15.0746 64.0242C14.9181 64.089 14.7759 64.184 14.6561 64.3037C14.5364 64.4235 14.4414 64.5657 14.3766 64.7221C14.3119 64.8786 14.2786 65.0463 14.2787 65.2157V75.1057H2.57888L2.576 19.2099Z" fill="#6C6C80"/>
<path d="M6.31092 33.6388H40.1576C40.4996 33.6388 40.8275 33.503 41.0693 33.2612C41.3112 33.0194 41.447 32.6914 41.447 32.3494V22.6793C41.4468 22.3375 41.3109 22.0097 41.0691 21.768C40.8273 21.5264 40.4994 21.3906 40.1576 21.3906H6.31092C5.96894 21.3906 5.64097 21.5265 5.39915 21.7683C5.15734 22.0101 5.02148 22.3381 5.02148 22.6801V32.3487C5.02139 32.5181 5.05467 32.6858 5.11943 32.8424C5.18419 32.9989 5.27915 33.1411 5.3989 33.2609C5.51864 33.3807 5.66082 33.4758 5.81731 33.5406C5.9738 33.6055 6.14153 33.6388 6.31092 33.6388ZM18.9329 31.06V23.9688H27.0814V31.06H18.9329ZM38.8689 31.06H29.6602V23.9688H38.8681L38.8689 31.06ZM7.60324 23.9688H16.354V31.06H7.60036L7.60324 23.9688Z" fill="#6C6C80"/>
<path d="M6.0868 47.9391H39.9342C40.2761 47.9391 40.6041 47.8032 40.8459 47.5614C41.0878 47.3196 41.2236 46.9916 41.2236 46.6497V36.981C41.223 36.6394 41.0869 36.312 40.8452 36.0707C40.6034 35.8293 40.2758 35.6938 39.9342 35.6938H6.0868C5.74482 35.6938 5.41685 35.8296 5.17503 36.0714C4.93321 36.3132 4.79736 36.6412 4.79736 36.9832V46.6497C4.79736 46.9916 4.93321 47.3196 5.17503 47.5614C5.41685 47.8032 5.74482 47.9391 6.0868 47.9391ZM18.7059 45.3602V38.2705H26.8572V45.3602H18.7059ZM38.644 45.3602H29.4368V38.2705H38.6447L38.644 45.3602ZM7.37839 38.2705H16.127V45.3602H7.37624L7.37839 38.2705Z" fill="#6C6C80"/>
<path d="M39.9342 62.2394C40.2761 62.2394 40.6041 62.1035 40.8459 61.8617C41.0878 61.6199 41.2236 61.2919 41.2236 60.9499V51.2813C41.2236 50.9393 41.0878 50.6113 40.8459 50.3695C40.6041 50.1277 40.2761 49.9919 39.9342 49.9919H6.0868C5.74482 49.9919 5.41685 50.1277 5.17503 50.3695C4.93321 50.6113 4.79736 50.9393 4.79736 51.2813V60.9499C4.79736 61.2919 4.93321 61.6199 5.17503 61.8617C5.41685 62.1035 5.74482 62.2394 6.0868 62.2394H39.9342ZM18.7059 59.6605V52.5707H26.8572V59.6605H18.7059ZM38.644 59.6605H29.4368V52.5707H38.6447L38.644 59.6605ZM7.37839 52.5707H16.127V59.6605H7.37624L7.37839 52.5707Z" fill="#6C6C80"/>
</svg>
