<svg width="72" height="72" viewBox="0 0 72 72" fill="none" xmlns="http://www.w3.org/2000/svg">
<g clip-path="url(#clip0)">
<path fill-rule="evenodd" clip-rule="evenodd" d="M58.0089 41.613C57.7233 41.8695 57.3627 41.9985 57.0035 41.9985C56.6443 41.9985 56.2852 41.8695 55.9996 41.613C55.4285 41.097 42.0054 28.8405 42.0054 15.7575C42.0054 7.06799 48.7335 -0.00151062 57.0035 -0.00151062C65.272 -0.00151062 71.9986 7.06799 71.9986 15.7575C71.9986 28.8405 58.58 41.097 58.0089 41.613ZM57.0035 2.99849C50.3866 2.99849 45.005 8.72249 45.005 15.7575C45.005 25.545 53.9513 35.3535 57.0035 38.412C60.0557 35.3535 68.999 25.545 68.999 15.7575C68.999 8.72249 63.6189 2.99849 57.0035 2.99849ZM57.0035 22.4985C52.8677 22.4985 49.5044 19.134 49.5044 15C49.5044 10.8645 52.8677 7.49849 57.0035 7.49849C61.1378 7.49849 64.5011 10.8645 64.5011 15C64.5011 19.134 61.1378 22.4985 57.0035 22.4985ZM57.0035 10.4985C54.5223 10.4985 52.5041 12.5175 52.5041 15C52.5041 17.481 54.5223 19.4985 57.0035 19.4985C59.4832 19.4985 61.5014 17.481 61.5014 15C61.5014 12.5175 59.4832 10.4985 57.0035 10.4985ZM42.7989 34.6155C42.632 35.3025 42.0174 35.7645 41.3411 35.7645C41.2254 35.7645 41.1067 35.751 40.9895 35.7225C39.4851 35.361 38.2814 34.6695 37.4308 33.7395C36.0948 35.109 34.0194 35.9745 31.5232 36C31.4826 36 31.4436 36 31.406 36C29.015 36 26.9652 35.2695 25.6201 33.9405C25.554 33.8745 25.5074 33.7965 25.4443 33.7275C24.1113 35.1045 22.0299 35.9745 19.5262 36C19.4856 36 19.4466 36 19.409 36C17.018 36 14.9682 35.2695 13.6232 33.9405C13.557 33.8745 13.5104 33.7965 13.4473 33.7275C12.1143 35.1045 10.0314 35.9745 7.52772 36C7.48865 36 7.44958 36 7.4105 36C6.87851 36 6.37055 35.9505 5.87613 35.88V68.9985H20.9043V49.4985C20.9043 47.844 22.356 46.5 24.0106 46.5H37.5074C39.1605 46.5 40.4409 47.844 40.4409 49.4985V68.9985H55.5022V47.9985C55.5022 47.1705 56.1739 46.5 57.002 46.5C57.8316 46.5 58.4748 47.1705 58.4748 47.9985V68.9985C58.4748 70.653 57.1553 71.9985 55.5022 71.9985H40.5056C38.8525 71.9985 37.4353 70.653 37.4353 68.9985V49.4985H23.9099V68.9985C23.9099 70.653 22.6641 71.9985 21.011 71.9985H6.01439C4.36129 71.9985 2.87049 70.653 2.87049 68.9985V34.875C2.41213 34.605 1.98984 34.299 1.62616 33.9405C0.572682 32.895 0.0151367 31.533 0.0151367 29.9985C0.0151367 29.937 0.0436903 29.8845 0.0512044 29.8245C0.0106283 29.6145 0.00611981 29.397 0.0632269 29.1765L4.56116 11.6265C4.57168 11.589 4.59723 11.562 4.60925 11.526C4.64382 11.427 4.6904 11.34 4.743 11.2515C4.79109 11.1705 4.83618 11.0925 4.89629 11.022C4.96091 10.95 5.03305 10.8915 5.10969 10.833C5.18633 10.773 5.25847 10.7175 5.34413 10.674C5.42829 10.632 5.51395 10.608 5.60562 10.581C5.70481 10.5525 5.79948 10.5285 5.90468 10.521C5.94225 10.518 5.97531 10.4985 6.01439 10.4985H36.0076C36.8357 10.4985 37.5074 11.1705 37.5074 11.9985C37.5074 12.8265 36.8357 13.4985 36.0076 13.4985H7.17757L2.98621 29.853C2.99072 29.904 3.01476 29.9475 3.01476 29.9985C3.01476 30.735 3.2507 31.3275 3.73611 31.8075C4.51908 32.58 5.87913 33.015 7.49917 32.9985C9.67224 32.9775 12.0121 32.028 12.0121 29.9985C12.0121 29.1705 12.6839 28.4985 13.5119 28.4985C14.3415 28.4985 15.0118 29.1705 15.0118 29.9985C15.0118 30.735 15.2477 31.3275 15.7346 31.8075C16.5161 32.58 17.8957 33.015 19.4962 32.9985C21.6692 32.9775 24.0106 32.028 24.0106 29.9985C24.0106 29.1705 24.6809 28.4985 25.5089 28.4985C26.3385 28.4985 27.0088 29.1705 27.0088 29.9985C27.0088 30.735 27.2447 31.3275 27.7316 31.8075C28.5116 32.58 29.9122 33.015 31.4932 32.9985C33.6662 32.9775 36.0076 32.028 36.0076 29.9985C36.0076 29.1705 36.6779 28.4985 37.5074 28.4985C38.3355 28.4985 39.0073 29.1705 39.0073 29.9985C39.0073 31.7865 40.465 32.5125 41.6898 32.805C42.4953 32.9985 42.9912 33.81 42.7989 34.6155Z" fill="black"/>
</g>
<defs>
<clipPath id="clip0">
<rect width="72" height="72" fill="white"/>
</clipPath>
</defs>
</svg>
