<svg width="151" height="49" viewBox="0 0 151 49" fill="none" xmlns="http://www.w3.org/2000/svg">
<path d="M65.5655 20.9284C66.1998 20.0405 67.0493 19.3689 68.1141 18.9136C69.2014 18.4583 70.4474 18.2306 71.8519 18.2306V23.1482C71.2629 23.1027 70.8665 23.0799 70.6626 23.0799C69.1448 23.0799 67.9555 23.5125 67.0946 24.3776C66.2338 25.22 65.8034 26.4949 65.8034 28.2024V36.8766H60.5024V18.5038H65.5655V20.9284Z" fill="#222222"/>
<path d="M93.1194 27.7585C93.1194 27.8268 93.0854 28.3049 93.0174 29.1928H79.1874C79.4366 30.3311 80.0256 31.2304 80.9544 31.8906C81.8832 32.5509 83.0385 32.881 84.4204 32.881C85.3719 32.881 86.21 32.7444 86.935 32.4712C87.6825 32.1752 88.3735 31.7199 89.0078 31.1052L91.8281 34.1787C90.1065 36.1594 87.5919 37.1498 84.2845 37.1498C82.223 37.1498 80.3994 36.7514 78.8136 35.9545C77.2279 35.1349 76.0046 34.008 75.1438 32.5736C74.2829 31.1393 73.8525 29.5115 73.8525 27.6902C73.8525 25.8916 74.2716 24.2752 75.1098 22.8409C75.9706 21.3838 77.1373 20.2568 78.6098 19.46C80.1049 18.6404 81.7699 18.2306 83.6049 18.2306C85.3945 18.2306 87.0142 18.6176 88.4641 19.3917C89.9139 20.1658 91.0466 21.2813 91.8621 22.7384C92.7003 24.1727 93.1194 25.8461 93.1194 27.7585ZM83.6389 22.2603C82.4382 22.2603 81.4301 22.6018 80.6146 23.2848C79.7991 23.9678 79.3007 24.9012 79.1195 26.0851H88.1243C87.943 24.924 87.4447 24.002 86.6291 23.319C85.8136 22.6132 84.8168 22.2603 83.6389 22.2603Z" fill="#222222"/>
<path d="M115.44 18.5038V36.8766H110.411V34.691C109.708 35.4878 108.87 36.1025 107.896 36.5351C106.922 36.9449 105.869 37.1498 104.736 37.1498C102.335 37.1498 100.432 36.4554 99.0272 35.0666C97.6227 33.6778 96.9204 31.6174 96.9204 28.8854V18.5038H102.221V28.1C102.221 31.0597 103.456 32.5395 105.925 32.5395C107.194 32.5395 108.213 32.1297 108.983 31.3101C109.754 30.4677 110.139 29.2269 110.139 27.5877V18.5038H115.44Z" fill="#222222"/>
<path d="M131.53 18.2306C133.229 18.2306 134.77 18.629 136.152 19.4258C137.556 20.1999 138.655 21.3041 139.448 22.7384C140.241 24.1499 140.637 25.8005 140.637 27.6902C140.637 29.5798 140.241 31.2418 139.448 32.6761C138.655 34.0876 137.556 35.1918 136.152 35.9887C134.77 36.7627 133.229 37.1498 131.53 37.1498C129.197 37.1498 127.362 36.4099 126.025 34.93V43.5017H120.724V18.5038H125.788V20.6211C127.101 19.0274 129.016 18.2306 131.53 18.2306ZM130.613 32.7785C131.972 32.7785 133.082 32.3232 133.943 31.4125C134.826 30.4791 135.268 29.2383 135.268 27.6902C135.268 26.142 134.826 24.9126 133.943 24.002C133.082 23.0685 131.972 22.6018 130.613 22.6018C129.254 22.6018 128.132 23.0685 127.249 24.002C126.388 24.9126 125.957 26.142 125.957 27.6902C125.957 29.2383 126.388 30.4791 127.249 31.4125C128.132 32.3232 129.254 32.7785 130.613 32.7785Z" fill="#222222"/>
<path d="M144.559 18.5038H149.86V36.8766H144.559V18.5038ZM147.21 15.9425C146.236 15.9425 145.443 15.6579 144.831 15.0888C144.22 14.5196 143.914 13.8138 143.914 12.9715C143.914 12.1291 144.22 11.4233 144.831 10.8542C145.443 10.285 146.236 10.0004 147.21 10.0004C148.184 10.0004 148.977 10.2736 149.588 10.82C150.2 11.3664 150.506 12.0494 150.506 12.869C150.506 13.7569 150.2 14.4968 149.588 15.0888C148.977 15.6579 148.184 15.9425 147.21 15.9425Z" fill="#222222"/>
<path d="M18.624 47.394L33.2874 32.73C35.6768 30.3406 37.0191 27.0999 37.0191 23.7208C37.0191 20.3417 35.6768 17.101 33.2874 14.7117L40.9708 7.02823C44.6551 10.7121 47.0407 15.4947 47.7674 20.6539C48.494 25.813 47.5222 31.0685 44.9988 35.6267C42.4753 40.1849 38.5372 43.7983 33.7792 45.9211C29.0213 48.0439 23.7017 48.5609 18.624 47.394V47.394Z" fill="#25D366"/>
<path d="M32.7285 14.7116C31.4993 13.4796 30.03 12.5132 28.4119 11.8725C26.7937 11.2317 25.0611 10.9304 23.3216 10.987C22.5839 11.0168 21.8478 10.895 21.159 10.629C20.4702 10.363 19.8433 9.95855 19.3171 9.4406L19.1824 9.30593C15.849 5.97251 18.0496 0.274716 22.7576 0.0321468C26.4661 -0.159977 30.1686 0.51103 33.5739 1.99238C36.9791 3.47372 39.9942 5.725 42.3819 8.5691C44.7696 11.4132 46.4648 14.7726 47.3341 18.3829C48.2035 21.9932 48.2233 25.756 47.3919 29.3752L32.7285 14.7116Z" fill="#39FF83"/>
<path d="M18.6226 47.392L23.9973 42.0172L25.6894 40.3252L29.3736 47.394C24.9744 48.0296 22.7587 48.0717 18.6226 47.392Z" fill="#0F9842"/>
<path d="M14.7116 32.7287L29.3751 47.3921C25.7559 48.2235 21.9931 48.2037 18.3828 47.3344C14.7725 46.465 11.4132 44.7698 8.56908 42.3821C5.72499 39.9944 3.47372 36.9793 1.99237 33.5741C0.511031 30.1688 -0.159977 26.4663 0.0321466 22.7577C0.274715 18.0498 5.9725 15.8492 9.3059 19.1826L9.44057 19.3173C9.95852 19.8435 10.363 20.4704 10.629 21.1592C10.895 21.848 11.0168 22.584 10.987 23.3218C10.9303 25.0613 11.2317 26.7939 11.8724 28.412C12.5131 30.0302 13.4795 31.4995 14.7116 32.7287V32.7287Z" fill="#39FF83"/>
<path d="M29.0554 21.4826C29.2205 21.8116 29.3535 22.1558 29.4526 22.5103C29.4682 22.5675 29.4667 22.6279 29.4482 22.6842C29.4297 22.7405 29.3951 22.7901 29.3486 22.8268C29.3021 22.8635 29.2458 22.8857 29.1868 22.8906C29.1278 22.8956 29.0686 22.883 29.0167 22.8546C27.7671 22.175 25.8141 21.2471 23.9004 21.2471C21.9868 21.2471 20.0338 22.1744 18.7842 22.8546C18.7322 22.883 18.673 22.8956 18.614 22.8906C18.555 22.8857 18.4987 22.8635 18.4522 22.8268C18.4058 22.7901 18.3711 22.7405 18.3526 22.6842C18.3341 22.6279 18.3326 22.5675 18.3483 22.5103C18.4473 22.1558 18.5803 21.8116 18.7455 21.4826L17.6936 20.8755C17.1489 21.9386 16.8863 23.1239 16.9312 24.3177C16.976 25.5115 17.3268 26.6737 17.9498 27.693C18.5729 28.7123 19.4473 29.5545 20.4892 30.1388C21.5312 30.7231 22.7058 31.03 23.9004 31.03C25.095 31.03 26.2696 30.7231 27.3116 30.1388C28.3536 29.5545 29.228 28.7123 29.851 27.693C30.474 26.6737 30.8248 25.5115 30.8696 24.3177C30.9145 23.1239 30.652 21.9386 30.1072 20.8755L29.0554 21.4826ZM21.0436 29.0565C20.3729 28.6723 19.7861 28.1576 19.3177 27.5428C18.8493 26.928 18.5089 26.2256 18.3165 25.4771C18.2875 25.36 18.3055 25.2362 18.3666 25.1323C18.4278 25.0283 18.5271 24.9524 18.6435 24.9208L19.2478 24.7543C19.3066 24.7381 19.368 24.7336 19.4285 24.7412C19.489 24.7487 19.5474 24.7682 19.6003 24.7983C19.6533 24.8285 19.6998 24.8689 19.7371 24.9171C19.7744 24.9653 19.8019 25.0204 19.8178 25.0793C20.1846 26.3829 20.6587 27.654 21.2352 28.8794C21.2476 28.9057 21.2512 28.9353 21.2457 28.9638C21.2401 28.9923 21.2256 29.0184 21.2042 29.0381C21.1829 29.0578 21.1558 29.0702 21.1269 29.0736C21.098 29.0769 21.0688 29.0709 21.0436 29.0565V29.0565ZM25.2887 28.2023L25.1033 29.3666C25.0874 29.4665 25.0399 29.5586 24.9678 29.6295C24.8957 29.7003 24.8027 29.7461 24.7026 29.7602C24.1704 29.8345 23.6304 29.8345 23.0982 29.7602C22.9981 29.7461 22.9051 29.7003 22.833 29.6294C22.7608 29.5586 22.7133 29.4665 22.6974 29.3666L22.5121 28.2023C22.5041 28.1523 22.5076 28.1012 22.5224 28.0528C22.5371 28.0044 22.5628 27.96 22.5973 27.923C22.6319 27.886 22.6744 27.8574 22.7217 27.8394C22.769 27.8214 22.8198 27.8145 22.8702 27.8191C23.1233 27.8425 23.4774 27.8652 23.9004 27.8652C24.3234 27.8652 24.6771 27.8425 24.9306 27.8191C24.981 27.8145 25.0318 27.8214 25.0791 27.8394C25.1264 27.8574 25.169 27.886 25.2035 27.923C25.2381 27.96 25.2637 28.0044 25.2785 28.0528C25.2932 28.1012 25.2967 28.1523 25.2887 28.2023V28.2023ZM26.7573 29.0565C26.7321 29.0707 26.703 29.0766 26.6743 29.0733C26.6455 29.07 26.6186 29.0576 26.5973 29.038C26.576 29.0184 26.5614 28.9926 26.5558 28.9642C26.5501 28.9358 26.5535 28.9064 26.5656 28.8801C27.1421 27.6546 27.6162 26.3836 27.983 25.08C27.999 25.0211 28.0264 24.966 28.0637 24.9178C28.101 24.8696 28.1475 24.8292 28.2005 24.799C28.2534 24.7688 28.3119 24.7494 28.3724 24.7418C28.4329 24.7343 28.4943 24.7388 28.553 24.755L29.1573 24.9215C29.2737 24.9531 29.3731 25.029 29.4342 25.133C29.4953 25.2369 29.5133 25.3607 29.4843 25.4777C29.2918 26.2262 28.9513 26.9284 28.483 27.5431C28.0146 28.1577 27.4278 28.6723 26.7573 29.0565Z" fill="#222222"/>
<path d="M21.1884 17.6286C20.6562 17.8543 20.1542 18.1453 19.6938 18.495L20.4743 19.425C20.8247 19.1645 21.2036 18.9446 21.6037 18.7697L21.1884 17.6286Z" fill="#222222"/>
<path d="M23.5495 17.0885C22.972 17.1171 22.4002 17.2177 21.8477 17.3881L22.2629 18.5291C22.6818 18.4052 23.1134 18.3294 23.5495 18.3035V17.0885" fill="#222222"/>
<path d="M24.2515 17.0885V18.3035C24.6875 18.3294 25.1192 18.4052 25.5381 18.5291L25.9533 17.3881C25.4008 17.2177 24.829 17.1171 24.2515 17.0885" fill="#222222"/>
<path d="M19.1569 18.9464C18.7336 19.3398 18.3605 19.7838 18.0459 20.2686L19.0973 20.8756C19.3389 20.512 19.6207 20.1768 19.9373 19.8764L19.1569 18.9471" fill="#222222"/>
<path d="M26.6126 17.6286L26.1973 18.7697C26.5973 18.9447 26.9763 19.1645 27.3267 19.4249L28.1072 18.495C27.6468 18.1453 27.1448 17.8543 26.6126 17.6286" fill="#222222"/>
<path d="M28.6442 18.9464L27.8638 19.8757C28.1804 20.1761 28.4622 20.5113 28.7037 20.8749L29.7552 20.2679C29.4406 19.7831 29.0675 19.3391 28.6442 18.9457" fill="#222222"/>
</svg>
