<svg width="14" height="14" viewBox="0 0 14 14" fill="none" xmlns="http://www.w3.org/2000/svg">
<path d="M10.7767 13.831C10.9408 13.9431 11.1077 14 11.2724 14C11.487 14 11.6827 13.9032 11.8097 13.7354C11.9114 13.6016 12.0108 13.368 11.9108 13.0148L10.782 9.02234C10.7732 8.98009 10.7991 8.88034 10.8255 8.84865L13.734 5.88952C13.9762 5.64366 14.0597 5.32856 13.9568 5.04631C13.8539 4.76407 13.5876 4.57572 13.2425 4.54227L9.3969 4.18433C9.35692 4.1767 9.27696 4.1192 9.25815 4.08575L7.71074 0.520474C7.57141 0.194811 7.30508 0 6.99995 0C6.69482 0 6.42967 0.193638 6.28915 0.518127L4.74351 4.08165C4.72352 4.11803 4.64298 4.1767 4.60712 4.18375L0.758594 4.54344C0.414073 4.57513 0.147158 4.76231 0.0436837 5.04455C-0.0597902 5.32738 0.0231065 5.64307 0.265329 5.88952L3.17259 8.84748C3.20081 8.88034 3.22609 8.98009 3.21845 9.02175L2.08906 13.0148C1.98911 13.368 2.08847 13.6016 2.19018 13.7354C2.41418 14.0323 2.84453 14.0892 3.22315 13.8304L6.95585 11.2762L7.03464 11.2715L10.7767 13.831Z" fill="#FFCC00"/>
</svg>
